<svg xmlns="http://www.w3.org/2000/svg" width="245" height="150" viewBox="0 0 245 150">
  <g id="on" transform="translate(0 -0.12)">
    <path id="_22" data-name="22" d="M17.845,351.744a2.118,2.118,0,0,1-2.095-2.14v-1.059a2.1,2.1,0,0,1,4.191,0V349.6a2.164,2.164,0,0,1-.614,1.514A2.072,2.072,0,0,1,17.845,351.744Z" transform="translate(-15.75 -270.624)" fill="#a8a9ab"/>
    <path id="_21" data-name="21" d="M65.295,350.821a2.072,2.072,0,0,1-1.482-.628,2.164,2.164,0,0,1-.613-1.515v-1.884a2.1,2.1,0,0,1,4.191,0v1.884A2.12,2.12,0,0,1,65.295,350.821Z" transform="translate(-51.763 -269.305)" fill="#a8a9ab"/>
    <path id="_20" data-name="20" d="M110.041,347.6a2.118,2.118,0,0,1-2.095-2.14V341.03a2.154,2.154,0,0,1,1.027-1.916,2.059,2.059,0,0,1,2.138,0,2.154,2.154,0,0,1,1.027,1.916v4.433A2.12,2.12,0,0,1,110.041,347.6Z" transform="translate(-85.723 -264.85)" fill="#a8a9ab"/>
    <path id="_19" data-name="19" d="M158.027,350.095a2.12,2.12,0,0,1-2.1-2.142v-2.618a2.1,2.1,0,0,1,4.191,0v2.618a2.164,2.164,0,0,1-.613,1.515A2.072,2.072,0,0,1,158.027,350.095Z" transform="translate(-122.143 -268.204)" fill="#a8a9ab"/>
    <path id="_18" data-name="18" d="M204.937,351.947a2.12,2.12,0,0,1-2.1-2.142v-.79a2.1,2.1,0,0,1,4.191,0v.79a2.164,2.164,0,0,1-.613,1.515A2.072,2.072,0,0,1,204.937,351.947Z" transform="translate(-157.746 -270.978)" fill="#a8a9ab"/>
    <path id="_17" data-name="17" d="M256.165,350.606a2.072,2.072,0,0,1-1.482-.628,2.164,2.164,0,0,1-.613-1.515V346.58a2.1,2.1,0,1,1,4.189,0v1.884a2.164,2.164,0,0,1-.613,1.515,2.072,2.072,0,0,1-1.482.628Z" transform="translate(-196.628 -269.09)" fill="#a8a9ab"/>
    <path id="_16" data-name="16" d="M301.987,346.907a2.123,2.123,0,0,1-2.1-2.142v-5.74a2.1,2.1,0,0,1,4.191,0v5.74a2.12,2.12,0,0,1-2.095,2.142Z" transform="translate(-231.404 -263.448)" fill="#a8a9ab"/>
    <path id="_15" data-name="15" d="M351.595,345.236a2.118,2.118,0,0,1-2.095-2.14v-7.432a2.1,2.1,0,0,1,4.191,0v7.424a2.166,2.166,0,0,1-.612,1.518A2.075,2.075,0,0,1,351.595,345.236Z" transform="translate(-269.057 -260.915)" fill="#a8a9ab"/>
    <path id="_14" data-name="14" d="M396.884,346.907a2.12,2.12,0,0,1-2.095-2.142v-5.74a2.1,2.1,0,0,1,4.191,0v5.74A2.12,2.12,0,0,1,396.884,346.907Z" transform="translate(-303.431 -263.448)" fill="#a8a9ab"/>
    <path id="_13" data-name="13" d="M445.947,348.979a2.12,2.12,0,0,1-2.1-2.14v-3.785a2.1,2.1,0,0,1,4.191,0v3.785A2.118,2.118,0,0,1,445.947,348.979Z" transform="translate(-340.666 -266.485)" fill="#a8a9ab"/>
    <path id="_12" data-name="12" d="M495.014,350.821a2.072,2.072,0,0,1-1.482-.628,2.164,2.164,0,0,1-.613-1.515v-1.884a2.1,2.1,0,0,1,4.191,0v1.884A2.12,2.12,0,0,1,495.014,350.821Z" transform="translate(-377.909 -269.304)" fill="#a8a9ab"/>
    <path id="_11" data-name="11" d="M539.765,351.743a2.118,2.118,0,0,1-2.095-2.14v-1.059a2.1,2.1,0,0,1,4.191,0V349.6a2.164,2.164,0,0,1-.614,1.514A2.072,2.072,0,0,1,539.765,351.743Z" transform="translate(-411.873 -270.623)" fill="#a8a9ab"/>
    <path id="_10" data-name="10" d="M587.214,350.821a2.072,2.072,0,0,1-1.482-.628,2.164,2.164,0,0,1-.613-1.515v-1.884a2.1,2.1,0,0,1,4.191,0v1.884a2.12,2.12,0,0,1-2.1,2.142Z" transform="translate(-447.886 -269.305)" fill="#a8a9ab"/>
    <path id="_9" data-name="9" d="M631.961,347.6a2.118,2.118,0,0,1-2.095-2.14v-4.433a2.154,2.154,0,0,1,1.027-1.916,2.059,2.059,0,0,1,2.138,0,2.153,2.153,0,0,1,1.027,1.916v4.433a2.164,2.164,0,0,1-.614,1.514A2.073,2.073,0,0,1,631.961,347.6Z" transform="translate(-480.846 -264.85)" fill="#a8a9ab"/>
    <path id="_8" data-name="8" d="M679.955,349.88a2.072,2.072,0,0,1-1.482-.628,2.164,2.164,0,0,1-.613-1.515V345.12a2.1,2.1,0,1,1,4.189,0v2.618a2.164,2.164,0,0,1-.613,1.515A2.072,2.072,0,0,1,679.955,349.88Z" transform="translate(-518.273 -267.989)" fill="#a8a9ab"/>
    <path id="_7" data-name="7" d="M726.857,351.947a2.12,2.12,0,0,1-2.1-2.142v-.79a2.1,2.1,0,0,1,4.191,0v.79a2.164,2.164,0,0,1-.613,1.515A2.072,2.072,0,0,1,726.857,351.947Z" transform="translate(-553.869 -270.977)" fill="#a8a9ab"/>
    <path id="_6" data-name="6" d="M778.084,350.606a2.072,2.072,0,0,1-1.482-.628,2.164,2.164,0,0,1-.613-1.515V346.58a2.1,2.1,0,1,1,4.189,0v1.884a2.164,2.164,0,0,1-.613,1.515,2.072,2.072,0,0,1-1.482.628Z" transform="translate(-592.751 -269.09)" fill="#a8a9ab"/>
    <path id="_5" data-name="5" d="M823.914,346.693a2.12,2.12,0,0,1-2.095-2.142v-5.74a2.1,2.1,0,1,1,4.189,0v5.74a2.12,2.12,0,0,1-2.095,2.142Z" transform="translate(-627.535 -263.233)" fill="#a8a9ab"/>
    <path id="_4" data-name="4" d="M873.515,345.236a2.118,2.118,0,0,1-2.094-2.14v-7.432a2.1,2.1,0,0,1,4.192,0v7.425a2.164,2.164,0,0,1-.612,1.519A2.072,2.072,0,0,1,873.515,345.236Z" transform="translate(-665.18 -260.915)" fill="#a8a9ab"/>
    <path id="_3" data-name="3" d="M918.8,346.907a2.12,2.12,0,0,1-2.095-2.142v-5.74a2.1,2.1,0,0,1,4.191,0v5.74A2.12,2.12,0,0,1,918.8,346.907Z" transform="translate(-699.553 -263.447)" fill="#a8a9ab"/>
    <path id="_2" data-name="2" d="M967.867,348.98a2.12,2.12,0,0,1-2.1-2.14v-3.785a2.1,2.1,0,0,1,4.191,0v3.785A2.118,2.118,0,0,1,967.867,348.98Z" transform="translate(-736.789 -266.486)" fill="#a8a9ab"/>
    <path id="_1" data-name="1" d="M1016.935,350.821a2.072,2.072,0,0,1-1.482-.628,2.164,2.164,0,0,1-.613-1.515v-1.884a2.1,2.1,0,0,1,4.191,0v1.884a2.164,2.164,0,0,1-.613,1.516A2.072,2.072,0,0,1,1016.935,350.821Z" transform="translate(-774.031 -269.305)" fill="#a8a9ab"/>
    <path id="body" d="M441.65,310.7c-5.11-19.846-27.935-18.183-35.973-18.016-8.041-.167-30.866-1.83-35.976,18.016-1.87,7.262-.012,15.553-2.791,25.938v25h5.216v3.448c.482-.473.964-.96,1.446-1.478,2.7-2.822,2.957-17.686,4.3-20.557L373.9,380.125H437.44l-3.96-37.049c1.345,2.871,1.6,17.73,4.3,20.557.723.761,1.446,1.477,2.148,2.167v-6.238h3.63V341.488h2.483C441.012,328.781,443.8,319.059,441.65,310.7Z" transform="translate(-282.271 -230.005)" fill="#9bcc50"/>
    <path id="right-ear" d="M593.4,160.416c-.615,4.6-3.225,7.912-6.884,7.42s-6.125-4.652-5.51-9.254,4.076-7.919,7.732-7.41S594.01,155.814,593.4,160.416Z" transform="translate(-444.691 -123.375)" fill="#fec59a"/>
    <path id="left-ear" d="M418.2,160.416c.615,4.6,3.23,7.912,6.881,7.42s6.127-4.652,5.512-9.254-4.076-7.919-7.732-7.41S417.589,155.814,418.2,160.416Z" transform="translate(-321.103 -123.375)" fill="#fec59a"/>
    <path id="head" d="M479.923,72.182a4.83,4.83,0,0,0-.142-.985c-.723-2.8-2.859-5.186-5.517-7.159a27.19,27.19,0,0,0-32.158,0c-2.651,1.97-4.787,4.359-5.515,7.159a4.835,4.835,0,0,0-.145.985c-.152,3.366-.832,24.133,5.035,32.505,4.953,7.077,11.189,10.919,16.7,10.919s11.753-3.842,16.706-10.919C480.757,96.305,480.075,75.549,479.923,72.182Z" transform="translate(-334.969 -53.771)" fill="#fec59a"/>
    <path id="neck" d="M502.738,253.4c-.61-.65-1.8-1.281-2.037-1.879l-2.357-12.709H487.425l-2.357,12.709c-.275.7-1.875,1.45-2.295,2.216a.751.751,0,0,0-.1.357c0,4.647,4.58,10.783,10.215,10.783s10.215-6.137,10.215-10.783A1.081,1.081,0,0,0,502.738,253.4Z" transform="translate(-370.129 -189.471)" fill="#fec59a"/>
    <path id="haire-left" d="M431.925,86.734c5.286,3.785.627,25.857.627,25.857C425.72,108.347,426,95.6,427.2,89.883,427.5,88.482,429.02,84.653,431.925,86.734Z" transform="translate(-327.523 -74.387)" fill="#232323"/>
    <path id="hair-right" d="M598.051,86.734c-5.288,3.785-.627,25.857-.627,25.857,6.831-4.243,6.549-16.991,5.351-22.707C602.471,88.482,600.943,84.653,598.051,86.734Z" transform="translate(-455.784 -74.387)" fill="#232323"/>
    <path id="hair-top" d="M477.265,51.583c0-5.637-6.913-12.643-21.83-12.643-15.361,0-19.3,12.414-19.3,12.414s-10.275,5.511.913,9.033c17.434,5.487,29.9-3.1,37.318-6.023C474.368,54.363,477.265,52.6,477.265,51.583Z" transform="translate(-331.542 -38.82)" fill="#232323"/>
    <rect id="panel" width="84.475" height="49.578" transform="translate(80.761 89.246)" fill="#a8a9ab"/>
    <path id="spectrum" d="M437.8,441.214h6.821l3.037-9.084,3.15,15.063,2.475-10.234,1.914,3.334h4.052l1.769,4.534,2.285-9.072,2.287,8.316,2.336-3.275h5.505" transform="translate(-332.278 -325.626)" fill="none" stroke="#fff" stroke-miterlimit="10" stroke-width="2"/>
    <path id="right-hand" d="M669.731,467.181c-.709.623-2.965,2.832-.807,4.048.157.089.321.17.482.246-.318.263-3.374,2.842-.976,4.186a17.223,17.223,0,0,0,6.508,1.576c3.442-.1,5.785-2.9,5.729-3.94s-1.446-1.827-.108-3.221a2.27,2.27,0,0,0,.2-3.391c-.692-.746.092-3.024.371-3.923,1.251-4.007-8.749-4.2-8.749-4.2A3.517,3.517,0,0,0,669.2,460.8c-.443,1.019-.072,1.542.841,1.864-.431.362-3.295,2.852-.95,4.174A7.027,7.027,0,0,0,669.731,467.181Z" transform="translate(-510.424 -355.107)" fill="#fec59a"/>
    <path id="left-hand" d="M337.463,467.181c.706.623,2.965,2.832.805,4.048-.154.089-.321.17-.482.246.321.263,3.374,2.842.979,4.186a17.232,17.232,0,0,1-6.508,1.576c-3.444-.1-5.785-2.9-5.732-3.94s1.446-1.827.111-3.221a2.272,2.272,0,0,1-.2-3.391c.692-.746-.094-3.024-.374-3.923-1.251-4.007,8.752-4.2,8.752-4.2A3.512,3.512,0,0,1,338,460.8c.443,1.019.075,1.542-.841,1.864.434.362,3.295,2.852.964,4.174A4.528,4.528,0,0,1,337.463,467.181Z" transform="translate(-251.05 -355.107)" fill="#fec59a"/>
    <path id="round" d="M463.343,463.88a20.36,20.36,0,1,1,19.923-20.355A20.143,20.143,0,0,1,463.343,463.88Zm0-36.445a16.1,16.1,0,1,0,15.754,16.1,15.927,15.927,0,0,0-15.754-16.1Z" transform="translate(-340.34 -328.432)" fill="#ee3636"/>
    <line id="barre" x2="26.636" y2="24.571" transform="translate(108.935 102.411)" fill="none" stroke="#ee3636" stroke-miterlimit="10" stroke-width="5"/>
  </g>
</svg>
